<svg width="18" height="20" viewBox="0 0 18 20" fill="none" xmlns="http://www.w3.org/2000/svg">
<g clip-path="url(#clip0_6985_4914)">
<path fill-rule="evenodd" clip-rule="evenodd" d="M16.6084 0.092667C16.6899 0.1481 16.7571 0.225507 16.8038 0.317549C16.8504 0.409592 16.875 0.513218 16.875 0.618604V19.1811C16.875 19.3452 16.8157 19.5026 16.7102 19.6186C16.6048 19.7347 16.4617 19.7998 16.3125 19.7998H12.9375C12.7883 19.7998 12.6452 19.7347 12.5398 19.6186C12.4343 19.5026 12.375 19.3452 12.375 19.1811V17.3249H11.25V19.1811C11.25 19.3452 11.1907 19.5026 11.0852 19.6186C10.9798 19.7347 10.8367 19.7998 10.6875 19.7998H0.5625C0.413316 19.7998 0.270242 19.7347 0.164752 19.6186C0.0592632 19.5026 0 19.3452 0 19.1811V12.3749C8.96026e-05 12.245 0.0372916 12.1185 0.106341 12.0133C0.17539 11.908 0.272788 11.8293 0.38475 11.7883L6.75 9.45435V5.5686C6.75 5.45379 6.77905 5.34124 6.83388 5.24355C6.88872 5.14586 6.96718 5.06688 7.0605 5.01544L16.0605 0.065442C16.1463 0.0181767 16.2418 -0.00413499 16.3377 0.000630481C16.4336 0.00539595 16.5268 0.03708 16.6084 0.092667ZM6.75 10.7587L1.125 12.8204V18.5623H6.75V10.7587ZM7.875 18.5623H10.125V16.7061C10.125 16.542 10.1843 16.3846 10.2898 16.2686C10.3952 16.1525 10.5383 16.0873 10.6875 16.0873H12.9375C13.0867 16.0873 13.2298 16.1525 13.3352 16.2686C13.4407 16.3846 13.5 16.542 13.5 16.7061V18.5623H15.75V1.61974L7.875 5.95099V18.5623Z" fill="#040404"/>
<path d="M2.25 13.6124H3.375V14.8499H2.25V13.6124ZM4.5 13.6124H5.625V14.8499H4.5V13.6124ZM2.25 16.0874H3.375V17.3249H2.25V16.0874ZM4.5 16.0874H5.625V17.3249H4.5V16.0874ZM9 11.1374H10.125V12.3749H9V11.1374ZM11.25 11.1374H12.375V12.3749H11.25V11.1374ZM9 13.6124H10.125V14.8499H9V13.6124ZM11.25 13.6124H12.375V14.8499H11.25V13.6124ZM13.5 11.1374H14.625V12.3749H13.5V11.1374ZM13.5 13.6124H14.625V14.8499H13.5V13.6124ZM9 8.6624H10.125V9.8999H9V8.6624ZM11.25 8.6624H12.375V9.8999H11.25V8.6624ZM13.5 8.6624H14.625V9.8999H13.5V8.6624ZM9 6.1874H10.125V7.4249H9V6.1874ZM11.25 6.1874H12.375V7.4249H11.25V6.1874ZM13.5 6.1874H14.625V7.4249H13.5V6.1874ZM13.5 3.7124H14.625V4.9499H13.5V3.7124Z" fill="#040404"/>
</g>
<defs>
<clipPath id="clip0_6985_4914">
<rect width="18" height="19.8" fill="white"/>
</clipPath>
</defs>
</svg>
