<svg width="14" height="16" viewBox="0 0 14 16" fill="none" xmlns="http://www.w3.org/2000/svg">
<path d="M12.3891 6.69455C12.3891 11.1236 6.69455 14.92 6.69455 14.92C6.69455 14.92 1 11.1236 1 6.69455C1 5.18426 1.59996 3.73583 2.66789 2.66789C3.73583 1.59996 5.18426 1 6.69455 1C8.20483 1 9.65326 1.59996 10.7212 2.66789C11.7891 3.73583 12.3891 5.18426 12.3891 6.69455Z" stroke="#040404" stroke-width="1.5" stroke-linecap="round" stroke-linejoin="round"/>
<path d="M6.69506 8.59275C7.74339 8.59275 8.59324 7.74291 8.59324 6.69457C8.59324 5.64623 7.74339 4.79639 6.69506 4.79639C5.64672 4.79639 4.79688 5.64623 4.79688 6.69457C4.79688 7.74291 5.64672 8.59275 6.69506 8.59275Z" stroke="#040404" stroke-width="1.5" stroke-linecap="round" stroke-linejoin="round"/>
</svg>
